<svg width="56" height="56" viewBox="0 0 56 56" fill="none" xmlns="http://www.w3.org/2000/svg">
<mask id="mask0_1399_7725" style="mask-type:alpha" maskUnits="userSpaceOnUse" x="0" y="0" width="56" height="56">
<circle cx="28" cy="28" r="27.5" fill="#D9D9D9" stroke="black"/>
</mask>
<g mask="url(#mask0_1399_7725)">
<rect width="56" height="56" fill="white"/>
</g>
<g clip-path="url(#clip0_1399_7725)">
<path d="M28.1628 47.4999L43.5081 39.8174C44.5943 39.2743 45.2756 38.1683 45.2756 36.9636V19.041C45.2756 17.8363 44.5943 16.7304 43.5081 16.1873L28.1628 8.50474C27.2543 8.0505 26.1878 8.0505 25.2794 8.50474L9.93408 16.1873C8.84786 16.7304 8.1665 17.8363 8.1665 19.041V36.9636C8.1665 38.1683 8.84786 39.2743 9.93408 39.8174L25.2794 47.4999C26.1878 47.9542 27.2543 47.9542 28.1628 47.4999Z" fill="#FF0211"/>
<path d="M39.5186 27.5743C44.1106 27.5743 47.8331 23.8518 47.8331 19.2598C47.8331 14.6678 44.1106 10.9453 39.5186 10.9453C34.9266 10.9453 31.2041 14.6678 31.2041 19.2598C31.2041 23.8518 34.9266 27.5743 39.5186 27.5743Z" fill="#4DC9FF"/>
<path d="M13.2719 34.4562L11.6426 33.6366V28.8276C11.6426 27.4155 12.4326 26.0133 14.0718 26.1911C15.6023 26.3589 16.7873 27.7118 17.1527 28.6104C17.7254 28.1068 18.2488 27.9981 19.0091 28.1068C19.8485 28.2253 22.9985 29.4201 22.9985 33.6958V39.3639L21.221 38.4653V33.1527C21.221 31.5925 20.2731 30.2989 18.9894 30.141C18.4561 30.0817 18.0019 30.5063 17.9821 31.4148C17.9624 32.3233 17.9821 36.8162 17.9821 36.8162L16.3429 35.9966V30.9704C16.3429 28.7486 14.9111 28.0475 14.2791 27.9784C13.9236 27.9389 13.2719 28.1561 13.2719 29.2917V34.4562Z" fill="white"/>
</g>
<circle cx="28" cy="28" r="27.5" stroke="#EFEFEF"/>
<rect x="0.5" y="0.5" width="15" height="15" rx="7.5" fill="#FF1717"/>
<rect x="0.5" y="0.5" width="15" height="15" rx="7.5" stroke="white"/>
<defs>
<clipPath id="clip0_1399_7725">
<rect width="39.6667" height="39.6667" fill="white" transform="translate(8.1665 8.16797)"/>
</clipPath>
</defs>
</svg>
